<?xml version="1.0" encoding="UTF-8" standalone="no"?>
<svg
   width="24"
   height="24"
   viewBox="0 0 24 24"
   fill="none"
   stroke="currentColor"
   stroke-width="2"
   stroke-linecap="round"
   stroke-linejoin="round"
   class="lucide lucide-star h-4 w-4 text-gray-400"
   aria-hidden="true"
   version="1.1"
   id="svg5"
   sodipodi:docname="eye_slash.svg"
   inkscape:version="1.4.2 (ebf0e940d0, 2025-05-08)"
   xmlns:inkscape="http://www.inkscape.org/namespaces/inkscape"
   xmlns:sodipodi="http://sodipodi.sourceforge.net/DTD/sodipodi-0.dtd"
   xmlns="http://www.w3.org/2000/svg"
   xmlns:svg="http://www.w3.org/2000/svg">
  <defs
     id="defs5" />
  <sodipodi:namedview
     id="namedview5"
     pagecolor="#ffffff"
     bordercolor="#000000"
     borderopacity="0.25"
     inkscape:showpageshadow="2"
     inkscape:pageopacity="0.0"
     inkscape:pagecheckerboard="0"
     inkscape:deskcolor="#d1d1d1"
     inkscape:zoom="33.458333"
     inkscape:cx="12"
     inkscape:cy="12"
     inkscape:window-width="2560"
     inkscape:window-height="1011"
     inkscape:window-x="0"
     inkscape:window-y="32"
     inkscape:window-maximized="1"
     inkscape:current-layer="svg5" />
  <path
     d="m 4.2788792,7.8045691 c -0.9355447,1.1041768 -1.6321844,2.3902029 -2.046,3.7769999 1.292,4.338 5.31,7.5 10.0660008,7.5 0.993,0 1.953,-0.138 2.863,-0.395 M 6.5268792,5.8095691 c 1.7126461,-1.1301393 3.7200838,-1.7311185 5.7720008,-1.728 4.756,0 8.773,3.162 10.065,7.4979999 -0.708041,2.369337 -2.22796,4.413599 -4.293,5.774 M 6.5268792,5.8095691 l -3.228,-3.228 m 3.228,3.228 3.6500008,3.65 m 7.894,7.8939999 3.228,3.228 m -3.228,-3.228 -3.65,-3.65 m 0,0 c 2.830563,-2.828665 -1.412437,-7.0716649 -4.243,-4.2429999 m 4.242,4.2419999 -4.241,-4.2409999"
     id="path1"
     sodipodi:nodetypes="ccsccccccccccccccccc" />
</svg>
